<?xml version="1.0" standalone="no"?>
<!DOCTYPE svg PUBLIC "-//W3C//DTD SVG 20010904//EN"
 "http://www.w3.org/TR/2001/REC-SVG-20010904/DTD/svg10.dtd">
<svg version="1.0" xmlns="http://www.w3.org/2000/svg"
 width="1024.000000pt" height="1024.000000pt" viewBox="0 0 1024.000000 1024.000000"
 preserveAspectRatio="xMidYMid meet">
<metadata>
Created by potrace 1.16, written by Peter Selinger 2001-2019
</metadata>
<g transform="translate(0.000000,1024.000000) scale(0.100000,-0.100000)"
fill="#115173" stroke="none">
<path d="M3822 8839 c-301 -32 -626 -147 -880 -312 -396 -257 -708 -673 -935
-1247 -97 -245 -134 -377 -437 -1575 -61 -242 -180 -712 -265 -1045 -84 -333
-201 -794 -260 -1025 -58 -231 -139 -550 -180 -710 -41 -159 -135 -533 -210
-830 -75 -297 -166 -652 -201 -789 -35 -137 -64 -253 -64 -258 0 -9 1529 -10
1590 -1 31 4 45 18 114 111 l79 106 44 170 c69 268 258 1012 533 2091 96 377
182 714 255 1000 24 94 96 377 161 630 433 1703 403 1594 466 1721 80 162 180
267 317 335 136 67 63 62 1105 67 637 2 974 0 1027 -7 262 -35 455 -217 563
-529 32 -91 139 -477 243 -872 20 -74 39 -139 44 -144 14 -16 11 16 -10 85
-32 111 -97 349 -121 444 -22 89 -97 354 -127 450 -84 264 -218 438 -403 524
-148 69 -91 66 -1155 63 -555 -1 -982 -6 -1011 -11 -241 -46 -445 -244 -538
-521 -33 -99 -70 -238 -221 -835 -41 -159 -101 -398 -135 -530 -34 -132 -88
-343 -120 -470 -32 -126 -91 -356 -130 -510 -39 -154 -102 -401 -140 -550 -38
-148 -98 -385 -134 -525 -35 -140 -97 -381 -136 -535 -69 -269 -130 -509 -245
-960 -30 -115 -74 -290 -99 -388 -25 -98 -48 -183 -52 -190 -31 -53 -150 -196
-167 -201 -33 -9 -1565 -7 -1571 2 -2 4 13 77 35 162 66 256 244 959 484 1905
141 555 263 1039 365 1440 91 359 182 715 350 1380 249 984 275 1077 367 1310
166 423 362 735 622 995 250 250 551 421 887 506 275 69 229 67 1549 68 655 1
1232 -3 1284 -7 204 -17 448 -78 640 -160 596 -252 1039 -813 1299 -1642 49
-155 62 -202 222 -830 27 -104 74 -289 105 -410 108 -421 260 -1017 330 -1290
50 -196 94 -367 216 -845 51 -197 99 -385 229 -895 93 -365 153 -601 235 -920
147 -574 193 -760 188 -767 -2 -5 -356 -8 -787 -8 -769 0 -783 0 -804 20 -25
23 -123 154 -142 190 -8 14 -37 120 -66 235 -29 116 -82 325 -117 465 -122
476 -297 1162 -392 1535 -137 540 -166 651 -174 670 -23 49 -7 -29 63 -301
156 -611 388 -1518 562 -2204 52 -206 99 -385 104 -397 5 -12 35 -56 67 -99
32 -42 67 -89 78 -105 l20 -29 814 0 c771 0 813 1 806 18 -11 24 -55 195 -416
1607 -177 693 -350 1373 -386 1510 -35 138 -109 428 -165 645 -55 217 -149
584 -208 815 -59 231 -147 573 -194 760 -48 187 -110 419 -137 515 -230 798
-609 1357 -1130 1665 -183 108 -436 199 -686 247 -118 22 -118 22 -1373 24
-690 1 -1292 -2 -1338 -7z"/>
<path d="M3700 5671 c0 -7 -33 -156 -74 -330 -41 -174 -98 -417 -127 -541 -28
-124 -71 -306 -95 -405 -23 -99 -40 -182 -37 -185 10 -11 3933 -11 3933 0 0 7
-608 10 -1942 10 -1091 0 -1949 4 -1957 9 -15 10 -14 20 18 156 12 50 28 122
37 160 9 39 22 95 29 125 25 106 55 236 71 305 9 39 22 95 29 125 7 30 23 98
35 150 12 52 28 120 35 150 7 30 23 98 35 150 11 52 26 100 32 107 8 11 313
13 1572 14 858 1 1575 5 1591 9 17 5 -693 8 -1577 7 -1352 -2 -1608 -4 -1608
-16z"/>
</g>
</svg>
