<?xml version="1.0" standalone="no"?>
<!DOCTYPE svg PUBLIC "-//W3C//DTD SVG 20010904//EN"
 "http://www.w3.org/TR/2001/REC-SVG-20010904/DTD/svg10.dtd">
<svg version="1.0" xmlns="http://www.w3.org/2000/svg"
 width="2280.000000pt" height="3280.000000pt" viewBox="0 0 1280.000000 1280.000000"
 preserveAspectRatio="xMidYMid meet">
<metadata>
Created by potrace 1.15, written by Peter Selinger 2001-2017
</metadata>
<g transform="translate(0.000000,1280.000000) scale(0.100000,-0.100000)"
fill="#8bc34a" stroke="none">
<path d="M6297 8369 c-463 -48 -833 -228 -1051 -512 -156 -203 -232 -413 -256
-701 -15 -191 2 -287 46 -260 10 6 22 26 26 45 134 549 366 942 679 1148 142
93 253 130 424 138 250 12 543 -65 719 -191 179 -127 231 -259 196 -499 -13
-96 -133 -463 -159 -490 -35 -36 -186 -49 -476 -43 -283 5 -338 12 -343 39 -4
17 46 158 93 262 15 33 51 123 81 199 120 305 204 416 382 500 54 26 62 33 62
58 0 26 -3 28 -38 28 -23 0 -81 -20 -157 -54 -267 -119 -377 -187 -471 -289
-114 -125 -174 -246 -413 -834 -203 -502 -291 -661 -457 -827 -116 -116 -223
-166 -354 -166 -88 0 -101 13 -74 72 48 107 0 232 -111 291 -49 26 -145 28
-190 5 -73 -39 -125 -128 -125 -218 0 -167 159 -280 395 -280 226 0 441 73
675 228 248 165 389 340 521 647 23 55 51 113 62 129 39 56 53 58 451 50 198
-4 372 -11 385 -16 22 -8 23 -13 18 -57 -3 -27 -36 -129 -73 -227 -164 -439
-181 -564 -87 -673 49 -58 131 -95 207 -94 74 1 196 43 347 118 234 118 362
233 329 295 -6 11 -17 20 -25 20 -8 0 -74 -39 -147 -87 -139 -92 -240 -147
-296 -163 -29 -8 -37 -6 -57 14 -37 37 -48 95 -35 184 16 107 101 354 218 637
199 481 251 651 259 850 5 121 4 135 -21 208 -29 87 -59 138 -122 214 -100
117 -286 222 -491 275 -104 27 -138 30 -288 33 -93 2 -210 -1 -258 -6z"/>
</g>
</svg>
