<?xml version="1.0" standalone="no"?>
<!DOCTYPE svg PUBLIC "-//W3C//DTD SVG 20010904//EN"
 "http://www.w3.org/TR/2001/REC-SVG-20010904/DTD/svg10.dtd">
<svg version="1.0" xmlns="http://www.w3.org/2000/svg"
 width="500.000000pt" height="500.000000pt" viewBox="0 0 500.000000 500.000000"
 preserveAspectRatio="xMidYMid meet">
<metadata>
Created by potrace 1.16, written by Peter Selinger 2001-2019
</metadata>
<g transform="translate(0.000000,500.000000) scale(0.100000,-0.100000)"
fill="#fff" stroke="none">
<path d="M1555 2446 c-22 -52 -165 -436 -165 -442 0 -3 14 -4 32 -2 29 3 33 8
56 71 l25 67 96 0 97 0 23 -70 c22 -69 23 -70 58 -70 24 0 34 4 30 13 -2 6
-39 109 -82 227 -43 118 -80 221 -82 228 -3 6 -21 12 -40 12 -29 0 -36 -5 -48
-34z m83 -153 l31 -93 -73 0 -73 0 36 99 c20 55 39 97 42 93 4 -4 20 -49 37
-99z"/>
<path d="M1990 2353 c-8 -3 -27 -17 -42 -31 l-28 -26 0 27 c0 22 -5 27 -25 27
l-25 0 0 -175 0 -175 24 0 c23 0 23 2 28 118 3 65 11 128 17 141 17 31 73 54
105 41 39 -15 46 -40 46 -174 l0 -126 30 0 30 0 0 138 c0 89 -5 146 -13 162
-21 43 -98 71 -147 53z"/>
<path d="M2298 2344 c-23 -10 -42 -28 -52 -49 -22 -45 -20 -55 9 -55 17 0 29
9 39 29 17 33 34 41 82 41 55 0 97 -59 62 -88 -7 -5 -40 -13 -73 -17 -74 -9
-120 -27 -134 -53 -20 -37 -13 -98 13 -129 21 -25 31 -28 83 -28 45 0 65 5 91
23 17 13 32 19 32 13 0 -18 48 -43 70 -36 23 7 28 45 5 45 -12 0 -15 18 -15
103 0 122 -11 169 -46 192 -37 24 -121 29 -166 9z m152 -199 c0 -64 -53 -110
-121 -103 -55 5 -74 74 -27 99 19 10 89 25 131 28 12 1 17 -6 17 -24z"/>
<path d="M2696 2335 c-34 -23 -36 -23 -36 -5 0 16 -7 20 -30 20 l-30 0 0 -175
0 -175 29 0 29 0 4 125 c3 120 4 126 30 152 20 19 38 27 63 27 62 0 70 -17 73
-169 l4 -135 30 0 30 0 -4 138 c-5 153 -14 183 -63 207 -47 22 -87 19 -129
-10z"/>
<path d="M3373 2349 c-62 -18 -103 -109 -48 -109 14 0 25 5 25 10 0 6 11 22
25 35 46 47 135 24 135 -35 0 -33 -1 -33 -110 -50 -53 -8 -70 -15 -92 -40 -47
-51 -30 -134 32 -160 39 -16 105 -7 141 19 34 25 39 26 39 6 0 -19 46 -38 71
-30 25 8 24 41 -1 48 -19 5 -20 14 -20 124 0 133 -8 155 -66 179 -37 16 -83
17 -131 3z m137 -217 c0 -51 -33 -83 -93 -89 -49 -6 -77 13 -77 51 0 33 28 53
85 64 85 16 85 16 85 -26z"/>
<path d="M2969 2243 c22 -60 51 -141 66 -181 26 -72 26 -73 8 -110 -14 -30
-24 -38 -50 -40 -27 -3 -33 -7 -33 -28 0 -21 4 -24 40 -24 70 0 70 0 219 408
l30 82 -33 0 -33 0 -44 -139 c-24 -77 -47 -137 -50 -133 -4 4 -26 67 -50 140
l-43 132 -33 0 -32 0 38 -107z"/>
</g>
</svg>
